# xmcd
# 
# Track frame offsets:
#     150
#     17995
#     30150
#     47482
#     64821
#     81180
#     96535
#     111073
#     136931
#     165816
#     184699
# 
# Disc length: 2808
# 
# Revision: 2
# Processed by: cddbd v1.5.2PL0 Copyright (c) Steve Scherf et al.
# Submitted via: fre:ac v1.0.31
# 
DISCID=810af60b
DTITLE=Drive By Truckers - American Band
DYEAR=2016
DGENRE=Rock/Pop
TTITLE0=Ramon Casiano
TTITLE1=Darkened Flags on the Cusp of Dawn
TTITLE2=Surrender Under Protest
TTITLE3=Guns of Umpqua
TTITLE4=Filthy and Fried
TTITLE5=Sun Don't Shine
TTITLE6=Kinky Hypocrite
TTITLE7=Ever South
TTITLE8=What It Means
TTITLE9=Once They Banned Imagine
TTITLE10=Baggage
EXTD=YEAR: 2016
EXTT0=
EXTT1=
EXTT2=
EXTT3=
EXTT4=
EXTT5=
EXTT6=
EXTT7=
EXTT8=
EXTT9=
EXTT10=
PLAYORDER=
